<svg width="116" height="38" viewBox="0 0 116 38" fill="none" xmlns="http://www.w3.org/2000/svg">
<rect width="116" height="35" fill="#CB0404"/>
<path d="M14.8947 15.375H10.3047V26H7.83965V15.375H3.24965V14.1H14.8947V15.375ZM16.5176 23.195C16.5176 24.2717 17.1693 24.81 18.4726 24.81H20.8526V21.58H18.4726C17.1693 21.58 16.5176 22.1183 16.5176 23.195ZM20.8526 20.39C20.8526 19.574 20.6373 18.9733 20.2066 18.588C19.7873 18.2027 19.2376 18.01 18.5576 18.01C18.0476 18.01 17.549 18.0893 17.0616 18.248C16.5743 18.3953 16.138 18.5993 15.7526 18.86L15.1576 17.84C15.407 17.67 15.679 17.5227 15.9736 17.398C16.2796 17.2733 16.5913 17.1713 16.9086 17.092C17.226 17.0013 17.5376 16.9333 17.8436 16.888C18.161 16.8427 18.4556 16.82 18.7276 16.82C19.453 16.82 20.0933 16.905 20.6486 17.075C21.204 17.245 21.6743 17.4887 22.0596 17.806C22.445 18.1233 22.734 18.503 22.9266 18.945C23.1306 19.3757 23.2326 19.8573 23.2326 20.39V26H18.4726C16.9313 26 15.7923 25.7677 15.0556 25.303C14.3303 24.8383 13.9676 24.1357 13.9676 23.195C13.9676 22.2543 14.3303 21.5517 15.0556 21.087C15.7923 20.6223 16.9313 20.39 18.4726 20.39H20.8526ZM27.5597 19.03C27.5597 19.2907 27.673 19.5287 27.8997 19.744C28.1377 19.9593 28.5343 20.1463 29.0897 20.305L31.7247 21.07C32.5407 21.308 33.1697 21.631 33.6117 22.039C34.0537 22.447 34.2747 22.974 34.2747 23.62C34.2747 24.028 34.1897 24.402 34.0197 24.742C33.8497 25.0707 33.572 25.354 33.1867 25.592C32.8013 25.83 32.3027 26.0113 31.6907 26.136C31.0787 26.272 30.325 26.34 29.4297 26.34C28.965 26.34 28.506 26.306 28.0527 26.238C27.6107 26.17 27.1857 26.0793 26.7777 25.966C26.381 25.8413 26.0183 25.7053 25.6897 25.558C25.361 25.3993 25.0777 25.235 24.8397 25.065L25.5197 24.045C25.9957 24.3397 26.551 24.6003 27.1857 24.827C27.8317 25.0423 28.5797 25.15 29.4297 25.15C30.2797 25.15 30.8747 25.0367 31.2147 24.81C31.5547 24.5833 31.7247 24.3 31.7247 23.96C31.7247 23.6993 31.6057 23.467 31.3677 23.263C31.1297 23.0477 30.7103 22.855 30.1097 22.685L27.4747 21.92C26.7493 21.7047 26.1543 21.3987 25.6897 21.002C25.2363 20.594 25.0097 20.05 25.0097 19.37C25.0097 19.0073 25.089 18.673 25.2477 18.367C25.4177 18.0497 25.6783 17.7777 26.0297 17.551C26.381 17.3243 26.8287 17.1487 27.3727 17.024C27.9167 16.888 28.574 16.82 29.3447 16.82C30.2853 16.82 31.1353 16.9503 31.8947 17.211C32.6653 17.4603 33.2887 17.755 33.7647 18.095L33.0847 19.115C32.62 18.8203 32.093 18.5653 31.5037 18.35C30.9143 18.1233 30.1947 18.01 29.3447 18.01C28.744 18.01 28.2963 18.1063 28.0017 18.299C27.707 18.4917 27.5597 18.7353 27.5597 19.03ZM36.4116 18.35H34.7966V17.16H36.4116V14.44H38.7916V17.16H41.4266V18.35H38.7916V22.77C38.7916 23.2007 38.8369 23.569 38.9276 23.875C39.0296 24.1697 39.1599 24.4133 39.3186 24.606C39.4886 24.7873 39.6813 24.9233 39.8966 25.014C40.1119 25.1047 40.3386 25.15 40.5766 25.15C40.9166 25.15 41.2453 25.099 41.5626 24.997C41.8799 24.8837 42.1463 24.7647 42.3616 24.64L42.8716 25.745C42.5316 25.915 42.1406 26.0567 41.6986 26.17C41.2679 26.2833 40.8373 26.34 40.4066 26.34C39.1259 26.34 38.1399 26.0227 37.4486 25.388C36.7573 24.7533 36.4116 23.8807 36.4116 22.77V18.35ZM51.1996 25.66H48.9896C47.3689 25.66 46.1676 25.371 45.3856 24.793C44.6149 24.2037 44.2296 23.331 44.2296 22.175V17.16H46.6096V22.175C46.6096 22.991 46.8136 23.5803 47.2216 23.943C47.6296 24.2943 48.2189 24.47 48.9896 24.47H51.1996V17.16H53.5796V25.83C53.5796 26.3627 53.4776 26.8443 53.2736 27.275C53.0696 27.717 52.7636 28.0967 52.3556 28.414C51.9589 28.7313 51.4546 28.975 50.8426 29.145C50.2419 29.315 49.5393 29.4 48.7346 29.4C48.4626 29.4 48.1679 29.3773 47.8506 29.332C47.5446 29.298 47.2329 29.2357 46.9156 29.145C46.5983 29.0657 46.2866 28.958 45.9806 28.822C45.6859 28.6973 45.4139 28.55 45.1646 28.38L45.8446 27.36C46.2299 27.6207 46.6606 27.8247 47.1366 27.972C47.6126 28.1307 48.0886 28.21 48.5646 28.21C49.4146 28.21 50.0663 28.0173 50.5196 27.632C50.9729 27.2467 51.1996 26.646 51.1996 25.83V25.66ZM62.6819 18.35H60.6419C59.8713 18.35 59.2819 18.5597 58.8739 18.979C58.4659 19.387 58.2619 19.999 58.2619 20.815V26H55.8819V20.815C55.8819 19.659 56.2446 18.7637 56.9699 18.129C57.7066 17.483 58.7606 17.16 60.1319 17.16H62.6819V18.35ZM68.2806 25.235C68.6433 25.235 68.9833 25.167 69.3006 25.031C69.618 24.895 69.8956 24.6853 70.1336 24.402C70.3716 24.1073 70.5586 23.7277 70.6946 23.263C70.842 22.7983 70.9156 22.2373 70.9156 21.58C70.9156 20.9227 70.842 20.3617 70.6946 19.897C70.5586 19.4323 70.3716 19.0583 70.1336 18.775C69.8956 18.4803 69.618 18.265 69.3006 18.129C68.9833 17.993 68.6433 17.925 68.2806 17.925C67.918 17.925 67.578 17.993 67.2606 18.129C66.9433 18.265 66.6656 18.4803 66.4276 18.775C66.1896 19.0583 65.997 19.4323 65.8496 19.897C65.7136 20.3617 65.6456 20.9227 65.6456 21.58C65.6456 22.2373 65.7136 22.7983 65.8496 23.263C65.997 23.7277 66.1896 24.1073 66.4276 24.402C66.6656 24.6853 66.9433 24.895 67.2606 25.031C67.578 25.167 67.918 25.235 68.2806 25.235ZM68.2806 16.82C69.04 16.82 69.737 16.9277 70.3716 17.143C71.0176 17.347 71.5673 17.653 72.0206 18.061C72.474 18.4577 72.8253 18.9563 73.0746 19.557C73.3353 20.1463 73.4656 20.8207 73.4656 21.58C73.4656 22.3507 73.3353 23.0307 73.0746 23.62C72.8253 24.2093 72.474 24.708 72.0206 25.116C71.5673 25.5127 71.0176 25.813 70.3716 26.017C69.737 26.2323 69.04 26.34 68.2806 26.34C67.51 26.34 66.8073 26.2323 66.1726 26.017C65.538 25.813 64.994 25.5127 64.5406 25.116C64.0873 24.708 63.7303 24.2093 63.4696 23.62C63.2203 23.0307 63.0956 22.3507 63.0956 21.58C63.0956 20.8207 63.2203 20.1463 63.4696 19.557C63.7303 18.9563 64.0873 18.4577 64.5406 18.061C64.994 17.653 65.538 17.347 66.1726 17.143C66.8073 16.9277 67.51 16.82 68.2806 16.82ZM75.4239 17.16H84.2639C85.8846 17.16 87.0803 17.4547 87.8509 18.044C88.6329 18.622 89.0239 19.489 89.0239 20.645V26H86.6439V20.645C86.6439 19.829 86.4399 19.2453 86.0319 18.894C85.6239 18.5313 85.0346 18.35 84.2639 18.35H83.4139V26H81.0339V18.35H77.8039V26H75.4239V17.16ZM93.2666 23.195C93.2666 24.2717 93.9183 24.81 95.2216 24.81H97.6016V21.58H95.2216C93.9183 21.58 93.2666 22.1183 93.2666 23.195ZM97.6016 20.39C97.6016 19.574 97.3863 18.9733 96.9556 18.588C96.5363 18.2027 95.9866 18.01 95.3066 18.01C94.7966 18.01 94.298 18.0893 93.8106 18.248C93.3233 18.3953 92.887 18.5993 92.5016 18.86L91.9066 17.84C92.156 17.67 92.428 17.5227 92.7226 17.398C93.0286 17.2733 93.3403 17.1713 93.6576 17.092C93.975 17.0013 94.2866 16.9333 94.5926 16.888C94.91 16.8427 95.2046 16.82 95.4766 16.82C96.202 16.82 96.8423 16.905 97.3976 17.075C97.953 17.245 98.4233 17.4887 98.8086 17.806C99.194 18.1233 99.483 18.503 99.6756 18.945C99.8796 19.3757 99.9816 19.8573 99.9816 20.39V26H95.2216C93.6803 26 92.5413 25.7677 91.8046 25.303C91.0793 24.8383 90.7166 24.1357 90.7166 23.195C90.7166 22.2543 91.0793 21.5517 91.8046 21.087C92.5413 20.6223 93.6803 20.39 95.2216 20.39H97.6016ZM104.479 24.895C104.479 25.235 104.36 25.5353 104.122 25.796C103.895 26.0453 103.589 26.17 103.204 26.17C102.818 26.17 102.507 26.0453 102.269 25.796C102.042 25.5353 101.929 25.235 101.929 24.895C101.929 24.555 102.042 24.2603 102.269 24.011C102.507 23.7503 102.818 23.62 103.204 23.62C103.578 23.62 103.884 23.7503 104.122 24.011C104.36 24.2603 104.479 24.555 104.479 24.895Z" fill="white"/>
</svg>
